<?xml version="1.0" encoding="UTF-8" standalone="no"?>
<svg
   width="1478.201px"
   height="1478.201px"
   viewBox="0 -141.54 1478.201 1478.201"
   version="1.1"
   id="svg115"
   sodipodi:docname="sql-server.svg"
   inkscape:version="1.1.2 (0a00cf5339, 2022-02-04)"
   xmlns:inkscape="http://www.inkscape.org/namespaces/inkscape"
   xmlns:sodipodi="http://sodipodi.sourceforge.net/DTD/sodipodi-0.dtd"
   xmlns="http://www.w3.org/2000/svg"
   xmlns:svg="http://www.w3.org/2000/svg">
  <defs
     id="defs119" />
  <sodipodi:namedview
     id="namedview117"
     pagecolor="#505050"
     bordercolor="#eeeeee"
     borderopacity="1"
     inkscape:pageshadow="0"
     inkscape:pageopacity="0"
     inkscape:pagecheckerboard="0"
     showgrid="false"
     inkscape:zoom="0.78067748"
     inkscape:cx="806.35092"
     inkscape:cy="1072.7862"
     inkscape:window-width="1920"
     inkscape:window-height="1018"
     inkscape:window-x="0"
     inkscape:window-y="0"
     inkscape:window-maximized="1"
     inkscape:current-layer="svg115" />
  <g
     transform="matrix(.569 0 0 .569 199.451 -82.735)"
     id="g111">
    <linearGradient
       id="a"
       gradientUnits="userSpaceOnUse"
       x1="-2901.952"
       y1="923.573"
       x2="-2061.249"
       y2="1420.331"
       gradientTransform="matrix(.1234 0 0 -.1234 1158.33 1550.273)">
      <stop
         offset="0"
         stop-color="#909ca9"
         id="stop90" />
      <stop
         offset="1"
         stop-color="#ededee"
         id="stop92" />
    </linearGradient>
    <path
       fill="url(#a)"
       d="M1410.773 814.195l-286.9 93.683-249.599 110.161-69.829 18.435c-17.784 16.916-36.431 34.049-56.599 51.397-22.119 19.082-42.72 36.433-58.553 49.008-17.564 13.88-43.587 39.902-56.814 56.38-19.735 24.721-35.348 50.96-42.071 71.13-11.928 36.433-6.07 73.297 16.916 107.346 29.492 43.369 88.261 87.606 156.785 117.749 34.916 15.4 93.683 35.132 137.92 46.19 73.512 18.651 215.771 38.819 294.054 41.857 15.828.65 37.082.65 37.947 0 1.737-1.088 13.881-24.289 27.979-53.129 48.142-98.238 82.838-190.402 101.703-269.119 11.276-47.706 20.166-111.246 26.019-186.492 1.521-21.036 2.169-91.514.868-115.37-1.953-39.033-5.423-70.692-10.84-101.703-.868-4.555-1.088-8.676-.652-8.892.865-.65 3.467-1.517 38.815-11.712l-7.153-16.912v-.005h.004zm-65.49 38.386c2.602 0 9.539 66.573 11.273 108.646.436 8.89.216 14.745-.216 14.745-1.733 0-36.649-20.599-61.583-36.212-21.687-13.663-62.888-40.988-69.393-46.192-2.173-1.517-1.957-1.733 15.828-7.807 30.14-10.194 101.706-33.18 104.091-33.18zm-146.161 48.143c1.953 0 6.937 2.816 18.865 10.191 44.671 27.974 105.393 61.805 131.415 73.083 8.022 3.469 8.887 2.166-9.542 14.746-39.468 26.889-88.697 53.344-148.983 80.018-10.624 4.771-19.514 8.456-19.73 8.456-.432 0 .865-5.418 2.598-11.925 14.53-54.001 22.772-108.647 23.208-152.452.216-21.687.216-21.687 2.169-22.334-.436.217-.22.217 0 .217zm-30.142 11.492c1.297 1.299.432 49.877-1.304 63.104-3.903 31.662-9.975 61.153-19.947 94.335-2.386 8.018-4.558 14.745-4.987 15.177-.872 1.083-30.581-27.975-40.339-39.251-16.916-19.518-30.141-39.035-39.9-58.117-4.988-9.759-12.793-28.84-12.144-29.492 3.469-2.385 117.753-46.622 118.621-45.756zm-141.826 55.731c.216 0 .432 0 .652.216.432.434 1.953 3.905 3.254 7.807 6.937 18.867 22.548 46.624 35.997 64.407 14.746 19.518 34.048 40.334 50.091 53.996 5.207 4.337 9.975 8.456 10.624 9.108 1.304 1.302 1.737 1.083-33.612 14.53-40.981 15.613-85.656 31.226-136.835 47.706a6825.474 6825.474 0 0 0-36.643 11.928c-1.955.652-1.303-.434 4.335-9.323 25.371-39.686 63.97-117.536 85.657-172.618 3.687-9.542 7.373-19.082 8.025-21.251.868-3.038 1.95-4.121 4.768-5.64 1.518-.43 3.038-.866 3.687-.866zm-43.367 17.999c.649.436-10.411 23.637-21.254 44.889-21.036 40.985-44.022 81.323-74.815 130.331-5.204 8.456-10.19 16.265-10.842 17.132-1.083 1.519-1.519 1.083-4.988-5.638-7.373-14.53-13.447-33.181-16.699-50.313-3.254-16.916-2.602-46.406 1.086-64.621 2.816-13.444 2.602-13.227 9.107-16.481 27.757-14.095 117.537-56.166 118.405-55.299zm374.073 15.182v9.107c0 48.359-5.204 114.716-12.797 163.077-1.301 8.456-2.389 15.393-2.602 15.613 0 0-6.288-1.733-13.661-3.905-32.527-10.193-67.875-25.156-99.754-42.718-21.038-11.494-51.612-30.363-50.743-31.231.213-.215 9.323-4.986 19.947-10.625 42.509-22.118 83.274-45.972 118.622-69.609 13.229-8.892 33.176-23.202 37.518-27.107l3.47-2.602zm-537.802 64.185c.867 0 .65 1.735-.651 9.542-.868 5.64-1.951 16.049-2.382 23.202-1.739 31.662 3.469 55.084 19.082 87.177 4.337 8.892 7.809 16.265 7.589 16.48-1.519 1.303-145.074 43.375-190.183 55.734-13.444 3.685-25.152 6.939-26.024 7.153-1.515.436-1.733.22-1.083-3.47 4.987-31.875 29.276-73.512 63.104-108.644 22.554-23.419 40.554-37.08 71.347-54.648 22.119-12.575 56.165-31.439 58.767-32.309.002-.217.218-.217.434-.217zm338.295 60.503c.216-.216 5.42 2.605 11.708 6.29 46.408 26.891 111.03 51.83 166.108 64.623l4.991 1.086-6.941 3.899c-28.84 16.049-123.606 55.515-220.538 91.732-14.098 5.202-27.975 10.409-30.581 11.492-2.602 1.083-4.988 1.735-4.988 1.519 0-.22 3.906-7.809 8.89-17.132 27.107-50.744 54.433-112.547 68.311-155.485 1.739-4.12 2.82-7.805 3.04-8.024zm-34.48 11.278c.22.221-1.517 4.771-3.687 9.975-18.865 45.756-43.59 95.636-75.249 151.583-8.022 14.314-14.746 25.808-14.966 25.808-.213 0-6.721-3.906-14.527-8.676-45.976-28.192-86.743-62.888-113.414-96.501l-3.905-4.771 19.732-5.422c70.696-19.298 130.762-40.116 190.4-65.704 8.459-3.471 15.4-6.292 15.616-6.292zm214.253 74.815s.217.217 0 0c.216 4.988-10.844 49.661-19.953 81.969-7.589 27.107-14.098 48.361-26.022 85.874-5.204 16.485-9.755 30.143-9.975 30.143-.216 0-1.517-.216-2.818-.647-64.405-11.714-122.089-27.977-176.303-49.661-15.182-6.074-36.866-15.833-38.167-16.916-.432-.438 12.58-6.506 29.06-13.663 98.669-43.154 201.024-92.164 236.153-113.196 4.119-2.603 7.373-3.903 8.025-3.903zm-494.646 16.916c.434.432-27.107 40.118-65.709 94.114-13.444 18.867-29.057 40.985-34.911 49.225-5.856 8.241-14.746 21.253-19.734 29.06l-9.112 14.096-9.759-8.24c-11.494-9.544-31.442-29.927-40.333-41.204-18.651-23.201-31.226-47.706-36.214-70.04-2.386-10.411-2.386-15.618-.22-16.265 3.252-.867 61.153-14.53 115.37-27.11 30.143-6.937 65.054-15.177 77.632-18.213 12.579-3.041 22.774-5.423 22.99-5.423zm27.756 10.626l6.937 7.806c31.231 34.914 63.108 60.724 101.708 83.272 6.941 3.906 12.144 7.373 11.708 7.594-1.514 1.083-134.016 48.136-195.385 69.389-34.478 12.143-62.888 21.901-63.102 21.901-.216 0-2.169-1.299-4.341-2.818l-3.901-2.82 6.288-9.106c20.383-29.493 45.976-61.803 101.707-129.028l38.381-46.19zm173.053 123.822c.213-.215 9.755 3.252 21.464 7.594 28.195 10.624 50.527 17.345 80.456 24.936 36.866 9.326 90.211 18.434 121.657 21.035 4.771.432 7.373.868 6.505 1.519-1.521.868-33.395 11.494-56.816 18.867-37.302 11.708-151.149 45.32-243.962 71.995-17.132 4.987-31.879 9.108-32.746 9.323-2.166.436-9.325-1.519-9.325-2.386 0-.431 5.204-7.153 11.494-14.527 31.225-37.3 62.238-78.935 88.044-118.403 7.154-10.846 13.229-19.736 13.229-19.953zm-38.17 1.087c.216.216-15.179 24.936-42.066 67.439-11.496 17.999-24.291 38.383-28.846 45.54-4.337 6.939-10.842 17.784-14.527 23.854l-6.29 11.061-3.252-.868c-7.809-2.169-62.672-21.471-77.202-27.325-18-7.157-36.649-15.829-50.529-23.202-17.346-9.326-39.03-23.206-37.297-23.637.433-.216 30.143-8.243 65.922-17.999 94.984-25.809 147.678-40.77 182.161-51.612 6.29-1.952 11.71-3.471 11.926-3.251zm269.985 63.318h.216c.868 2.171-34.26 99.755-47.06 130.547-2.815 6.939-3.896 8.677-5.417 8.456-3.687-.213-54.646-7.37-85.66-11.925-53.994-8.24-144.641-24.073-167.409-29.275l-5.204-1.083 32.307-7.378c69.396-15.613 102.791-24.069 136.619-34.478 42.722-13.011 85.011-29.276 127.729-49.225 6.722-3.037 12.361-5.422 13.879-5.639z"
       id="path95" />
    <linearGradient
       id="b"
       gradientUnits="userSpaceOnUse"
       x1="-2882.7"
       y1="10288.81"
       x2="-2206.249"
       y2="10288.81"
       gradientTransform="matrix(.1234 0 0 -.1234 1158.33 1550.273)">
      <stop
         offset="0"
         stop-color="#939fab"
         id="stop97" />
      <stop
         offset="1"
         stop-color="#dcdee1"
         id="stop99" />
    </linearGradient>
    <path
       fill="url(#b)"
       d="M1114.983 145.414c-4.771-.647-81.757 27.11-131.415 47.275-67.01 27.327-119.052 53.351-151.148 75.899-11.925 8.461-26.891 23.422-29.273 29.276-.867 2.169-1.303 4.771-1.303 7.373l29.06 27.541 69.175 22.119 164.594 29.493 188.228 32.312 1.953-16.264c-.649 0-1.085-.216-1.73-.216l-24.728-3.905-4.984-8.89c-25.59-45.107-53.781-101.056-70.261-138.789-12.793-29.276-24.938-63.102-31.662-87.391-3.687-14.746-4.119-15.613-6.501-15.829v-.005h-.005zm-3.474 11.063h.223c.213.214 1.081 6.29 1.95 13.442 3.683 30.364 10.411 59.635 21.035 91.297 8.022 23.855 8.022 22.555-1.301 19.734-22.119-6.07-121.221-23.202-193-33.177-11.494-1.519-21.253-3.036-21.253-3.252-.867-.867 51.827-28.41 75.031-39.25 29.709-13.665 111.246-47.711 117.315-48.794zm-209.047 97.15l8.461 2.816c45.97 15.616 161.551 37.736 225.31 42.94 7.154.651 13.229 1.303 13.442 1.303.216.216-5.852 3.469-13.661 7.154-30.79 15.397-64.621 34.264-88.042 48.794-6.937 4.335-13.229 7.807-14.094 7.807-.868 0-5.42-.868-10.191-1.519l-8.674-1.303-21.683-21.253c-38.167-37.08-68.094-65.704-79.588-76.549l-11.28-10.19zm-8.671 6.721l30.576 38.168c16.696 21.035 33.611 41.635 37.301 46.187 3.683 4.557 6.721 8.245 6.505 8.461-.868.65-44.236-7.809-67.226-13.011-23.637-5.423-33.395-8.025-47.924-12.577l-11.928-3.905v-3.038c.216-14.53 18.651-36.214 49.877-58.331l2.819-1.954zm259.791 52.046c.869 0 1.95 1.951 4.552 7.806 7.373 16.263 30.364 60.07 35.997 68.526 1.74 2.822 4.771 3.038-25.802-1.95-73.512-11.93-97.152-15.829-97.152-16.263 0-.216 2.169-1.735 4.988-3.254 22.771-12.575 45.756-28.624 66.142-45.756 4.988-4.121 9.542-8.024 10.407-8.676.216-.433.652-.649.868-.433z"
       id="path102" />
    <radialGradient
       id="c"
       cx="-14217.448"
       cy="7277.705"
       r="898.12"
       gradientTransform="matrix(-.1185 -.0178 -.036 .237 -198.955 -1314.415)"
       gradientUnits="userSpaceOnUse">
      <stop
         offset="0"
         stop-color="#ee352c"
         id="stop104" />
      <stop
         offset="1"
         stop-color="#a91d22"
         id="stop106" />
    </radialGradient>
    <path
       fill="url(#c)"
       d="M804.66 294.828s-4.768 7.593-.215 18.87c2.822 6.937 11.061 15.393 20.384 24.069 0 0 96.5 94.114 108.211 107.561 53.344 61.585 76.549 122.305 78.718 206.012 1.301 53.78-8.894 101.054-34.264 155.919-45.106 98.453-140.307 207.098-287.117 327.67l21.472-7.157c13.878-10.411 32.745-21.467 76.982-45.756 102.137-55.952 217.071-107.346 358.028-160.258 202.971-76.335 536.715-165.681 726.676-194.736l19.737-3.038-3.038-4.771c-17.345-26.891-29.276-43.587-43.59-61.369-41.633-51.612-92.157-93.463-153.964-128.161-85.007-47.489-194.956-84.571-334.173-112.112-26.239-5.207-83.923-15.181-130.763-22.337-99.321-15.393-163.51-26.021-234.203-38.165-25.37-4.339-63.323-10.843-88.478-16.263-13.011-2.822-37.947-8.676-57.464-15.398-15.613-6.075-38.168-12.147-42.939-30.58zm55.952 54.216c.214-.214 3.683 1.083 8.24 2.602 8.24 2.816 18.865 6.07 31.446 9.542a1599.47 1599.47 0 0 0 28.624 7.589c13.011 3.251 23.852 6.288 24.068 6.288 1.521 1.519 23.424 71.558 30.797 98.449 2.815 10.195 4.988 18.867 4.771 18.867-.223.22-2.605-3.469-5.423-8.456-25.373-44.673-65.491-89.995-111.899-126.428-6.069-4.333-10.624-8.237-10.624-8.453zm106.692 29.492c1.085 0 5.856.651 11.708 1.951 36.866 8.24 103.008 20.818 145.293 27.975 7.157 1.083 12.797 2.387 12.797 2.818 0 .436-2.605 1.951-5.859 3.688-7.153 3.685-35.997 20.815-45.536 27.322-24.073 16.047-45.756 33.395-61.371 49.008-6.288 6.29-11.712 11.494-11.712 11.494s-1.297-3.685-2.386-8.242c-7.802-30.143-24.069-74.816-38.815-106.258-2.386-4.986-4.339-9.541-4.339-9.973 0 .433 0 .217.22.217zm187.795 35.781c1.301.432 3.47 7.806 7.806 24.069 8.025 31.446 11.712 66.576 10.411 99.321-.436 9.108-.868 17.564-1.304 18.651l-.649 2.166-11.276-3.685c-23.204-7.373-60.935-18.435-93.245-27.541-18.436-4.988-33.395-9.542-33.395-9.975 0-1.303 26.891-28.192 38.383-38.383 21.898-19.303 81.316-65.275 83.269-64.623zm14.963 2.166c.652-.647 89.779 14.746 130.331 22.554 30.145 5.854 73.948 14.963 76.549 16.049 1.301.432-3.254 3.034-17.784 9.539-57.248 25.808-99.754 49.008-142.036 77.202-11.06 7.373-20.386 13.444-20.602 13.444-.216 0-.433-6.287-.433-13.878 0-41.201-8.241-82.838-23.424-117.968-1.517-3.47-2.818-6.722-2.601-6.942zm230.516 45.542c.652.65-2.169 18.217-4.771 28.624-7.806 32.312-28.84 80.24-54.643 125.343-4.558 8.024-8.677 14.53-9.114 14.746-.429.216-6.285-3.038-13.009-6.941-25.154-14.746-53.778-28.624-85.007-41.637-8.671-3.685-16.263-6.723-16.48-7.153-1.521-1.303 68.308-47.493 105.174-69.612 29.276-17.781 76.982-44.239 77.85-43.37zm16.48 2.601c1.953 0 41.421 10.844 62.019 16.916 50.963 15.181 109.512 36.648 147.679 53.996l15.828 7.159-11.056 2.6c-93.245 21.467-173.049 46.192-250.034 77.418-6.289 2.602-11.928 4.771-12.357 4.771-.436 0 1.733-4.987 4.552-11.061 23.204-49.225 38.167-100.62 41.85-144.427.221-4.121.867-7.372 1.519-7.372zm-392.938 90.213c.649-.652 30.793 6.506 47.057 11.056 24.721 6.942 77.198 24.505 77.198 25.808 0 .216-5.853 5.204-12.79 11.278-28.408 23.637-55.734 48.572-88.481 80.234-9.759 9.328-17.997 16.917-18.429 16.917-.436 0-.649-1.304-.436-3.038 4.987-36.433 3.906-83.272-3.034-130.763-.653-6.074-1.302-11.276-1.085-11.492zm633.433.652c.429.431-13.881 22.984-22.988 35.777-13.009 18.649-32.098 43.375-75.252 97.588-22.765 28.622-48.358 60.936-56.812 71.778-8.678 10.842-15.831 19.948-16.051 19.948-.216 0-3.031-3.901-6.069-8.671-24.289-36.433-53.349-68.311-87.829-96.935-6.505-5.423-13.658-11.278-16.044-13.013-2.386-1.734-4.339-3.469-4.339-3.685 0-.649 36.862-16.483 64.841-27.757 49.01-19.952 115.794-43.805 165.892-59.203 26.24-8.239 54.215-16.263 54.651-15.827zm16.696 4.334c.865-.215 6.072 2.387 12.361 6.07 52.697 30.143 104.305 68.962 145.077 108.864 11.492 11.278 39.9 40.77 39.464 40.986 0 0-9.975.867-21.683 1.733-91.296 6.942-208.178 26.239-320.511 53.345-7.589 1.733-14.31 3.252-14.746 3.252-.429 0 8.025-8.456 18.653-18.647 65.922-63.538 96.067-103.656 131.628-175.22 4.986-10.623 9.325-19.731 9.757-20.383-.216 0-.216 0 0 0zm-482.936 49.446c3.038.647 31.229 13.88 52.48 24.503 19.517 9.755 48.794 25.372 50.311 26.671.216.216-10.195 5.638-22.984 11.928-40.772 20.384-75.684 39.682-112.118 61.802-10.408 6.29-19.082 11.497-19.298 11.497-.868 0-.652-.872 5.204-11.497 19.518-35.561 35.129-78.065 44.023-119.486.864-3.252 1.733-5.418 2.382-5.418zm-28.192 5.202c.652.652-6.721 27.323-11.273 41.853-8.894 27.541-23.856 62.02-38.383 88.043-3.474 6.069-8.677 14.961-11.496 19.948l-5.42 8.674-12.144-11.707c-14.094-13.663-25.59-22.12-40.333-29.712-5.859-3.033-10.411-5.638-10.411-6.069 0-1.735 37.082-35.347 65.49-59.635 20.383-17.566 63.321-52.045 63.97-51.395zm172.404 70.913l10.627 6.937c24.282 15.833 52.906 36.866 74.813 55.298 12.357 10.19 36.21 31.662 40.985 36.866l2.598 2.822-17.561 4.986c-99.321 27.538-176.087 52.043-265.649 85.007-9.975 3.685-18.433 6.721-19.085 6.721-1.297 0-2.385 1.083 19.954-19.519 57.251-52.691 107.992-110.812 145.726-167.411l7.592-11.707zm-45.324 11.276c.432.432-29.276 42.284-47.06 65.922-21.251 28.192-58.985 75.465-85.007 106.256-10.84 12.797-20.163 23.422-20.599 23.64-.652.216-.868-3.036-.868-8.024 0-26.242-6.721-54.216-18.433-78.068-4.988-9.975-5.856-12.361-4.768-13.444 4.119-3.688 67.223-39.686 107.123-61.153 26.89-14.312 68.956-35.563 69.612-35.129zm-274.107 67.225c.652 0 5.64 2.6 11.279 5.638 13.878 7.589 26.239 16.046 37.298 25.156.432.432-5.204 4.988-12.577 10.406-20.602 14.746-51.828 38.385-70.041 52.915-19.088 15.18-19.734 15.613-17.568 12.361 14.314-21.903 21.467-34.264 29.06-50.093 6.721-14.094 13.442-30.793 18.213-45.323 1.734-6.289 3.904-11.06 4.336-11.06zm73.083 57.248c1.081-.214 2.386 1.735 8.238 10.411 12.361 18.429 21.903 43.154 24.292 63.104l.429 4.339-29.705 11.494c-53.133 20.599-102.139 40.985-135.322 56.162-9.322 4.339-25.587 12.144-36.211 17.352-10.627 5.418-19.301 9.539-19.301 9.323s6.721-5.204 14.961-11.278c64.844-47.055 121.007-98.669 163.076-150.279 4.555-5.423 8.677-10.411 9.107-10.627l.436-.001zm-33.612 8.242c.868.867-23.853 28.84-40.768 45.971-41.853 42.723-83.273 76.12-134.669 108.649-6.505 4.119-12.359 7.804-13.011 8.24-1.519.867.432-1.303 22.986-25.808 14.314-15.397 25.155-28.408 37.516-44.453 8.24-10.624 9.759-12.143 21.688-20.604 31.878-22.987 105.39-72.864 106.258-71.995z"
       id="path109" />
  </g>
  <path
     fill="#231F1F"
     d="M265.747 900.102c-2.276 0-4.553.217-6.809.217-45.975 2.45-76.983 22.683-95.113 62.195-15.506 35.735-13.813 82.446.174 118.4 16.265 35.131 42.547 53.672 86.416 60.675 9.282 1.52 15.506 6.616 33.483 27.606l22.12 25.915h40.118l-26.676-26.892c-14.746-14.745-26.673-27.584-26.673-28.712 0-1.127 5.641-3.599 12.469-5.68 22.51-6.812 41.203-24.202 54.279-50.854 10.583-21.402 12.102-28.018 13.619-54.646 3.969-79.26-37.82-128.813-107.409-128.247l.002.023zm35.173 207.27c-19.517 9.453-47.857 11.34-66.356 4.553-19.127-7.025-37.646-26.889-45.975-49.377-9.259-24.591-7.937-69.956 2.646-90.386 17.023-32.528 39.534-47.49 72.43-47.49 48.792 0 76.549 29.884 80.171 86.048 2.863 46.885-12.838 82.058-42.895 96.632l-.021.02zm693.025-139.568c-16.828 0-29.709 6.811-38.385 20.231l-6.809 10.627v-27.628h-29.123v165.678h29.104v-52.956c0-48.424.604-54.084 7.371-67.335 9.326-18.172 25.371-27.234 40.879-22.897l10.408 3.036v-28.712h-13.445v-.044zm-171.098-1.519c-5.705 0-11.756.76-17.781 2.084-38.971 10.19-60.938 47.489-59.594 85.873 0 32.139 6.244 48.206 21.752 65.057 31.77 26.065 60.502 28.146 99.275 14.161 6.615-2.819 13.814-6.072 13.814-6.072v-26.065l-13.814 7.156c-31.379 13.661-55.016 13.661-73.949-2.43-12.076-12.296-17.391-27.042-19.84-43.868h117.426v-22.339c0-45.539-27.41-74.294-67.313-73.557h.024zm-47.492 72.647s4.338-28.407 20.428-39.554c7.744-5.466 16.633-8.11 25.328-8.11 8.719 0 17.414 2.818 24.592 8.306 14.748 11.341 17.219 39.143 17.219 39.143h-87.566v.215h-.001zm-702.111-29.881c-31.573-19.128-45.582-32.921-43.869-49.185 4.9-44.997 60.503-38.773 91.295-21.749l.219-30.272s-17.024-7.373-41.421-7.764c-37.429-.564-61.63 11.709-72.97 36.691-16.656 36.865-1.908 64.665 51.396 95.677 29.925 17.412 43.152 32.528 43.152 49.008 0 34.047-41.05 45.931-83.401 24.57-8.716-4.337-16.09-7.959-16.48-7.959-1.519 9.651-.736 32.745-.736 32.745s13.012 5.466 32.527 9.236c48.4 9.65 92.445-13.054 96.608-49.919 3.622-34.609-8.893-52.761-56.318-81.104l-.002.025zm1178.454-43.155c-5.682 0-11.711.78-18 2.103-38.924 10.192-60.85 47.492-59.354 85.876 0 32.095 6.225 48.011 21.729 64.838 31.771 26.089 60.504 28.191 99.473 14.184 6.592-2.818 13.77-6.026 13.77-6.026v-26.109l-13.791 7.197c-31.443 13.619-55.082 13.619-73.947-2.471-12.145-12.274-17.414-26.847-19.865-43.871h117.232v-22.336c0-45.321-27.412-74.099-67.313-73.339l.066-.046zm-47.492 72.646s4.381-28.365 20.449-39.729c7.721-5.485 16.611-8.132 25.307-8.132 8.674 0 17.414 2.819 24.594 8.327 14.746 11.342 17.219 39.338 17.219 39.338h-87.545l-.024.196zm-533.809-29.123c-31.573-19.083-45.54-32.92-43.848-49.185 4.9-45.02 60.504-38.773 91.296-21.749l.218-30.272s-17.024-7.374-41.421-7.722c-37.429-.563-61.63 11.711-72.991 36.692-16.633 36.864-1.692 64.666 51.437 95.677 29.884 17.393 43.111 32.312 43.111 48.792 0 34.047-41.029 46.126-83.381 24.569-8.674-4.337-16.046-7.916-16.48-7.916-1.519 9.649-.736 32.746-.736 32.746s12.858 5.27 32.31 9.237c48.445 9.672 92.51-13.012 96.653-49.877 3.6-34.437-8.891-52.587-56.167-80.952v-.04zm752.421-42.005c-16.828 0-29.859 6.829-38.383 20.254l-6.811 10.582v-27.583h-29.123V1136.3h29.102v-52.954c0-48.403.584-54.085 7.375-67.313 9.324-18.15 25.369-27.235 40.875-22.878l10.408 3.035v-28.775h-13.443zm-984.021 41.05V902.941h-29.361v233.728h123.478v-27.604h-94.116v-100.601zm679.015 32.896l-24.201 62.975-23.27-63.322-23.637-70.173h-30.055c19.475 55.212 40.658 111.376 62.02 165.829 9.26.216 18.541 0 27.799 0l32.682-82.058 33.287-83.75h-28.732s-12.688 33.266-25.914 70.521l.021-.022zM506.455 839.251c4.728 0 8.674-1.516 11.927-4.769 3.208-3.211 4.9-6.984 4.9-11.711 0-4.728-1.692-8.675-4.9-11.711-3.253-3.035-7.005-4.555-11.711-4.555-4.769 0-8.717 1.52-11.927 4.728-3.252 3.211-4.727 7.158-4.727 11.712 0 4.771 1.519 8.716 4.727 11.711 3.037 3.034 6.984 4.553 11.711 4.553v.042zm-10.408-26.889c2.818-2.818 6.245-4.121 10.625-4.121 4.121 0 7.548 1.303 10.411 4.121 2.819 2.819 4.337 6.245 4.337 10.409 0 4.163-1.518 7.764-4.337 10.582-2.862 2.817-6.29 4.163-10.411 4.163-4.185 0-7.59-1.301-10.408-4.163-2.819-2.818-4.337-6.419-4.337-10.582 0-4.164 1.301-7.589 4.12-10.409zm7.003 11.928h1.908c1.346 0 2.668 1.3 3.795 3.773l2.279 5.116h3.577l-2.818-5.683c-1.149-2.275-2.276-3.598-3.6-3.969 1.67-.39 2.992-.953 3.947-2.082.952-.974 1.3-2.298 1.3-3.795 0-1.734-.542-3.034-1.69-3.989-1.302-1.084-3.384-1.669-6.074-1.669h-6.026v21.187h3.035v-8.891l.367.002zm0-9.846h2.647c1.908 0 3.253.39 3.99.953.716.564.911 1.303.911 2.646 0 2.45-1.52 3.601-4.337 3.601h-3.252v-7.2h.041zm-485.018 7.958c0-7.373-.216-12.858-.39-16.09h.174c.758 3.814 1.691 6.657 2.45 8.543l28.19 62.975h4.728l28.19-63.538c.761-1.733 1.52-4.337 2.452-7.959h.216c-.563 6.29-.758 11.754-.758 16.112v55.581h9.648v-82.622h-12.1L54.919 852.87c-.955 2.276-2.278 5.683-3.969 10.193h-.392c-.563-2.234-1.886-5.639-3.772-9.803l-25.33-58.053H8.598v82.621h9.281v-55.385l.153-.041zm96.045.154h8.329v51.458h-8.329v-51.458zm4.164-18.868c1.736 0 3.21-.587 4.337-1.734 1.15-1.129 1.91-2.603 1.91-4.337 0-1.692-.565-3.211-1.887-4.337-1.171-1.15-2.668-1.737-4.381-1.737-1.69 0-3.208.587-4.338 1.737-1.146 1.126-1.907 2.645-1.907 4.337 0 1.887.586 3.208 1.907 4.337 1.304 1.147 2.647 1.734 4.338 1.734h.021zm63.54 71.455v-9.066c-4.555 3.405-9.456 5.098-14.53 5.098-6.07 0-10.995-2.081-14.595-6.07-3.577-3.947-5.485-9.436-5.485-16.266 0-7.156 1.908-12.84 5.854-17.177 3.795-4.163 8.719-6.245 14.748-6.245 4.922 0 9.647 1.52 14.009 4.557v-9.65c-3.968-2.082-8.5-3.037-13.619-3.037-9.456 0-16.827 3.037-22.335 8.894-5.466 5.854-8.285 13.813-8.285 23.42 0 8.543 2.45 15.722 7.548 21.209 5.312 5.637 12.102 8.5 20.428 8.5 6.438-.178 11.707-1.523 16.262-4.167zm23.831-27.433c0-6.788 1.518-12.273 4.337-16.049 2.647-3.403 5.855-5.116 9.65-5.116 3.21 0 5.486.585 7.155 1.908v-9.846c-1.3-.563-3.187-.758-5.637-.758-3.405 0-6.439 1.146-9.107 3.253-2.819 2.231-5.074 5.638-6.397 9.975h-.216v-12.08h-9.433v58.985h9.454V847.71h.194zm54.279 31.443c8.892 0 16.048-2.863 21.36-8.543 5.29-5.641 7.936-13.229 7.936-22.686 0-9.647-2.427-17.021-7.372-22.51-4.9-5.483-11.711-8.132-20.603-8.132s-16.048 2.647-21.36 7.764c-5.681 5.641-8.674 13.599-8.674 23.813 0 8.891 2.429 16.265 7.548 21.751 5.29 5.68 12.295 8.521 21.165 8.521v.022zm-13.445-48.055c3.6-3.795 8.329-5.683 14.182-5.683 6.074 0 10.627 1.888 14.01 5.683 3.404 3.969 5.097 9.63 5.097 17.197 0 7.198-1.519 12.859-4.729 16.654-3.208 3.969-7.936 6.071-14.183 6.071-6.071 0-10.777-2.104-14.377-6.071-3.577-3.99-5.291-9.456-5.291-16.654-.368-7.156 1.519-13.01 5.291-17.197zm84.141 42.916c3.599-3.208 5.509-7.155 5.509-12.102 0-4.337-1.52-7.936-4.338-10.777-2.3-2.275-5.854-4.337-10.994-6.419-4.556-1.906-7.374-3.6-8.893-4.923-1.517-1.517-2.45-3.402-2.45-6.071 0-2.45.955-4.337 2.821-5.855 1.908-1.516 4.337-2.253 7.59-2.253 5.096 0 9.454 1.343 13.443 4.185v-9.456c-3.816-1.906-7.958-2.817-12.686-2.817-6.071 0-11.189 1.671-14.964 4.899-3.969 3.212-5.854 7.375-5.854 12.274 0 4.337 1.3 7.938 3.771 10.582 2.082 2.256 5.641 4.556 10.583 6.614 4.729 2.083 7.938 3.968 9.65 5.485 1.691 1.52 2.45 3.405 2.45 5.641 0 5.506-3.772 8.349-11.146 8.349-5.682 0-10.776-1.866-15.333-5.638v10.189c4.121 2.475 9.066 3.601 14.53 3.601 7.005-.368 12.49-2.081 16.264-5.486l.047-.022zm45.019-56.73c-8.893 0-16.048 2.647-21.361 7.764-5.638 5.641-8.674 13.599-8.674 23.813 0 8.891 2.452 16.265 7.547 21.751 5.313 5.68 12.295 8.521 21.187 8.521 9.107 0 16.048-2.861 21.36-8.545 5.313-5.637 7.958-13.227 7.958-22.683 0-9.65-2.472-17.022-7.374-22.509-5.115-5.487-11.927-8.133-20.601-8.133l-.042.021zm18.345 31.012c0 7.198-1.518 12.859-4.727 16.654-3.21 3.969-7.938 6.071-14.184 6.071-6.074 0-10.778-2.104-14.379-6.071-3.577-3.99-5.29-9.456-5.29-16.654 0-7.59 1.888-13.444 5.683-17.393 3.576-3.773 8.306-5.682 14.182-5.682 5.854 0 10.561 1.907 13.964 5.682 3.037 4.163 4.729 9.824 4.729 17.393h.022zm25.547 29.513h9.433v-51.068h13.813v-7.938H428.93v-9.108c0-8.282 3.208-12.446 9.845-12.446 2.234 0 4.511.563 6.203 1.518v-8.521c-1.692-.759-3.969-.932-6.812-.932-5.095 0-9.258 1.519-12.664 4.727-3.969 3.773-6.071 8.674-6.071 15.312v9.672h-9.978v7.936h9.978v50.876l.067-.028zm38.75-16.091c0 11.538 5.098 17.414 15.506 17.414 3.774 0 6.614-.606 8.891-1.951v-8.11c-1.734 1.302-3.795 1.91-6.071 1.91-3.208 0-5.464-.762-6.788-2.475-1.345-1.689-2.103-4.554-2.103-8.501v-33.286h14.961v-7.938h-14.961v-17.39c-3.253 1.127-6.44 2.082-9.456 3.034v14.355h-10.192v7.938h10.192v34.979l.021.021zm1014.88 108.73c-3.209-3.034-7.004-4.553-11.709-4.553-4.77 0-8.719 1.519-11.928 4.771-3.209 3.188-4.729 7.155-4.729 11.711 0 4.728 1.52 8.675 4.705 11.709 3.211 3.036 7.156 4.556 11.928 4.556 4.705 0 8.674-1.52 11.928-4.729 3.188-3.253 4.879-7.004 4.879-11.709-.174-4.771-1.887-8.719-5.096-11.754l.022-.002zm-1.517 22.338c-2.82 2.818-6.246 4.119-10.41 4.119-4.119 0-7.545-1.301-10.408-4.119-2.818-2.863-4.338-6.441-4.338-10.627 0-4.121 1.301-7.545 4.164-10.408 2.818-2.817 6.225-4.121 10.582-4.121 4.121 0 7.549 1.304 10.41 4.121 2.818 2.863 4.336 6.287 4.336 10.408 0 4.382-1.301 7.764-4.336 10.627zm-8.502-9.651c1.691-.39 3.037-1.149 3.969-2.081.955-.977 1.303-2.301 1.303-3.815 0-1.692-.543-3.037-1.691-3.969-1.301-1.085-3.404-1.671-6.07-1.671h-6.029v21.164h3.037v-8.891h1.885c1.303 0 2.604 1.3 3.773 3.773l2.254 5.096h3.602l-2.818-5.683c-.977-2.472-2.105-3.601-3.252-3.97l.037.047zm-2.082-1.907h-3.252v-7.155h2.668c1.887 0 3.209.345 3.969.932.758.563.932 1.301.932 2.646 0 2.45-1.518 3.579-4.336 3.579l.019-.002zM933.443 816.353h2.646v-21.187h7.002v-2.646h-16.652v2.646h7.006v21.187h-.002zm16.047-15.917c0-2.062 0-3.753-.152-4.705.174 1.126.564 1.887.738 2.45l8.133 18.172h1.301l8.152-18.347c.219-.563.393-1.301.76-2.275-.174 1.887-.174 3.401-.174 4.553v16.048h2.82V792.52h-3.406l-7.371 16.438c-.174.587-.762 1.734-1.129 3.037h-.217c-.152-.761-.541-1.519-1.084-2.818l-7.373-16.655h-3.816v23.854h2.666v-15.917l.152-.023z"
     id="path113" />
  <path
     style="fill:#a0a0a0;stroke:none;stroke-width:1.81152"
     d="m 113.93994,989.99617 c 0,-14.44688 0.28133,-20.35697 0.62518,-13.13353 0.34385,7.22344 0.34385,19.04362 0,26.26706 -0.34385,7.2234 -0.62518,1.3133 -0.62518,-13.13353 z"
     id="path842"
     transform="translate(0,-141.54)" />
  <path
     style="fill:#a0a0a0;stroke:none;stroke-width:1.81152"
     d="m 122.99755,989.99617 c 0,-14.44688 0.28133,-20.35697 0.62518,-13.13353 0.34384,7.22344 0.34384,19.04362 0,26.26706 -0.34385,7.2234 -0.62518,1.3133 -0.62518,-13.13353 z"
     id="path881"
     transform="translate(0,-141.54)" />
  <path
     style="fill:#a0a0a0;stroke:none;stroke-width:1.81152"
     d=""
     id="path920"
     transform="translate(0,-141.54)" />
  <path
     style="fill:#a0a0a0;stroke:none;stroke-width:1.81152"
     d=""
     id="path959"
     transform="translate(0,-141.54)" />
  <path
     style="fill:#a0a0a0;stroke:none;stroke-width:1.81152"
     d="m 115.03158,989.99617 c 0,-24.15361 0.17252,-25.36129 3.62304,-25.36129 3.45051,0 3.62304,1.20768 3.62304,25.36129 0,24.15363 -0.17253,25.36133 -3.62304,25.36133 -3.45052,0 -3.62304,-1.2077 -3.62304,-25.36133 z"
     id="path998"
     transform="translate(0,-141.54)" />
  <path
     style="fill:#ffffff;stroke:none;stroke-width:1.81152"
     d="m 34.418897,1280.929 c -6.974355,-1.3289 -17.367957,-3.8969 -23.096891,-5.7067 l -10.41624555,-3.2905 v -15.1892 c 0,-17.2773 -0.50571269,-17.0139 16.38105955,-8.5299 19.045684,9.5688 42.32038,12.7576 59.449413,8.1453 10.273384,-2.7664 21.064383,-13.4171 23.762457,-23.4536 5.61274,-20.8787 -5.727013,-36.8616 -42.530021,-59.9445 -44.096554,-27.6574 -58.92050153,-46.6553 -56.5763833,-72.5067 1.2126466,-13.3733 10.1293153,-32.1849 18.9097843,-39.8943 8.600021,-7.5509 22.513205,-13.8955 36.046766,-16.4378 13.310546,-2.5004 41.929547,-0.9866 54.606814,2.8885 l 9.51049,2.9071 v 14.2114 14.2114 l -10.82118,-4.3708 c -30.607035,-12.3628 -60.653461,-9.3824 -73.359966,7.2767 -2.576264,3.3777 -5.628073,10.6415 -6.7818,16.142 -1.952305,9.3076 -1.784638,10.6095 2.419242,18.7839 5.420546,10.5403 17.038217,20.2627 46.189678,38.6545 24.387436,15.3862 40.815636,30.4993 46.073346,42.3853 11.50091,25.9997 3.0641,56.4557 -19.91417,71.8881 -17.038251,11.443 -46.074401,16.3604 -69.852393,11.8298 z"
     id="path1074"
     transform="translate(0,-141.54)" />
  <path
     style="fill:#ffffff;stroke-width:1.81152"
     d="m 292.56062,1319.4792 c -19.33478,-23.4015 -32.91373,-35.5946 -41.2304,-37.0226 -37.37412,-6.417 -61.9621,-21.0626 -78.66762,-46.8573 -18.43898,-28.4714 -24.13589,-79.4733 -13.07921,-117.0924 8.19114,-27.8695 28.50319,-52.8679 51.97441,-63.9659 19.13666,-9.0485 29.76905,-11.1183 56.54729,-11.0078 19.64804,0.081 25.50064,0.7783 35.32466,4.2085 32.06387,11.1953 53.63354,34.867 63.7536,69.9667 3.61962,12.554 4.17322,18.4896 4.13938,44.3823 -0.0438,33.5968 -1.22577,38.9734 -14.13644,64.3089 -11.018,21.6215 -28.1677,38.1456 -48.21426,46.4554 -8.40962,3.486 -15.60367,7.2786 -15.98678,8.4279 -0.38311,1.1494 10.90203,13.9301 25.07811,28.4017 l 25.77466,26.3121 -18.84549,-0.037 -18.8455,-0.037 z m -0.90576,-65.9904 c 23.20644,-8.1407 39.0137,-24.971 47.44613,-50.5168 4.29182,-13.0019 4.82658,-17.4124 4.84692,-39.9756 0.0163,-18.6636 -0.81971,-28.4327 -3.16761,-36.9913 -7.26173,-26.4707 -20.42522,-43.6307 -40.97359,-53.4135 -11.29352,-5.3766 -12.73893,-5.6058 -35.35683,-5.6058 -22.99989,0 -23.88076,0.147 -35.68868,5.9572 -22.14351,10.8959 -40.44381,36.3933 -45.00407,62.7033 -3.1015,17.8938 -1.28385,53.445 3.40555,66.609 9.23941,25.9365 28.35573,45.5925 51.95808,53.4249 9.86448,3.2735 40.61175,1.991 52.5341,-2.1914 z"
     id="path1187"
     transform="translate(0,-141.54)" />
  <path
     style="fill:#ffffff;stroke-width:0.45288"
     d="m 116.25389,1013.4327 c -0.68972,-1.5223 -0.76943,-3.9505 -0.76943,-23.43653 0,-19.48606 0.0797,-21.9142 0.76943,-23.43655 0.68219,-1.50576 0.95438,-1.6983 2.40073,-1.6983 1.44635,0 1.71853,0.19254 2.40073,1.6983 0.68971,1.52235 0.76943,3.95049 0.76943,23.43655 0,19.48603 -0.0797,21.91423 -0.76943,23.43653 -0.6822,1.5058 -0.95438,1.6983 -2.40073,1.6983 -1.44635,0 -1.71854,-0.1925 -2.40073,-1.6983 z"
     id="path1226"
     transform="translate(0,-141.54)" />
  <path
     style="fill:#ffffff;stroke-width:0.45288"
     d="m 8.8311644,977.99484 v -41.2121 l 6.2271026,0.0104 6.227104,0.0104 13.812846,31.71895 c 7.597066,17.44542 14.131946,32.66191 14.521956,33.81451 0.390011,1.1526 0.899501,2.1584 1.132201,2.2352 0.2327,0.077 1.260516,-2.0505 2.284036,-4.72738 1.023517,-2.67687 7.726774,-17.85905 14.896117,-33.73816 l 13.035175,-28.87112 h 5.823152 5.823152 v 40.98566 40.9856 h -4.566491 -4.566487 l 0.150905,-35.75472 0.150908,-35.75478 -1.35864,4.16639 c -0.747253,2.29151 -7.673707,18.39013 -15.392122,35.77472 l -14.033477,31.60829 -2.23115,-0.1331 -2.231149,-0.1332 -9.228794,-20.60603 C 34.231673,987.04113 27.758558,972.5716 24.922811,966.21996 c -2.835748,-6.35165 -5.516739,-12.97502 -5.957757,-14.71861 -0.441019,-1.74359 -0.914548,-3.31293 -1.052289,-3.48742 -0.13774,-0.17449 -0.184333,15.77256 -0.10354,35.43788 l 0.146897,35.75509 H 13.393643 8.8311644 Z"
     id="path1265"
     transform="translate(0,-141.54)" />
  <path
     style="fill:#ffffff;stroke-width:0.45288"
     d="m 115.25095,944.10613 c -3.24376,-1.70296 -3.96035,-5.76819 -1.52662,-8.66052 4.33268,-5.14909 12.75517,0.0368 9.88457,6.08616 -1.50445,3.17039 -5.10829,4.28043 -8.35795,2.57436 z"
     id="path1304"
     transform="translate(0,-141.54)" />
  <path
     style="fill:#ffffff;stroke-width:0.45288"
     d="m 157.92011,1019.6498 c -9.89127,-2.5914 -17.27764,-10.6055 -19.39506,-21.04348 -1.02445,-5.05005 -0.66733,-14.16378 0.72779,-18.57352 3.27616,-10.35536 10.45351,-17.45715 20.1279,-19.916 6.23403,-1.58445 14.18118,-1.28514 19.58777,0.73773 l 2.41002,0.9017 v 4.49627 c 0,2.47294 -0.0903,4.49626 -0.20055,4.49626 -0.11031,0 -0.88828,-0.40576 -1.72883,-0.9017 -4.21461,-2.48669 -10.73715,-3.65205 -15.50651,-2.7705 -6.48834,1.19929 -12.48571,6.03224 -14.86696,11.98048 -3.30414,8.25362 -2.5928,18.69885 1.73408,25.46286 5.41048,8.4579 17.78206,10.8635 27.73473,5.3928 l 2.83404,-1.5577 v 4.2456 4.2456 l -3.05694,1.2238 c -6.39301,2.5594 -14.31948,3.1732 -20.40148,1.5798 z"
     id="path1343"
     transform="translate(0,-141.54)" />
  <path
     style="fill:#ffffff;stroke-width:0.45288"
     d="M 196.32358,989.99617 V 960.7854 h 4.5288 4.5288 l 0.004,6.2271 0.004,6.2271 1.79648,-3.68098 c 2.19601,-4.49955 5.56636,-7.8273 9.17212,-9.05617 2.44872,-0.83454 6.85724,-1.06981 9.06283,-0.48366 l 1.24542,0.33098 v 4.52018 c 0,2.48609 -0.077,4.52017 -0.17113,4.52017 -0.0941,0 -0.90276,-0.30569 -1.79698,-0.67932 -0.90826,-0.3795 -2.98146,-0.67737 -4.69733,-0.6749 -7.27806,0.0105 -12.30643,5.22291 -13.97618,14.48775 -0.43928,2.43744 -0.61661,8.09648 -0.62795,20.03995 l -0.0158,16.6433 h -4.5288 -4.5288 z"
     id="path1382"
     transform="translate(0,-141.54)" />
  <path
     style="fill:#ffffff;stroke-width:0.45288"
     d="m 254.97157,1020.1428 c -6.42479,-1.0537 -11.17143,-3.3935 -15.33922,-7.5613 -4.80666,-4.8067 -7.255,-10.4421 -7.95578,-18.31205 -1.55255,-17.43551 6.30658,-30.48669 20.57771,-34.17217 4.21038,-1.08732 10.71029,-1.3063 15.10346,-0.50883 14.82703,2.69147 23.05723,15.78355 21.33901,33.94473 -1.24811,13.19222 -8.73777,22.80002 -20.16729,25.87082 -3.21591,0.864 -10.40589,1.2558 -13.55789,0.7388 z m 13.19445,-8.618 c 9.56589,-3.3621 14.007,-15.87133 10.762,-30.31314 -1.81335,-8.07022 -7.0217,-12.95468 -15.15638,-14.21381 -10.2751,-1.59044 -19.2827,4.14341 -21.95344,13.97462 -0.87643,3.22622 -0.97714,12.10525 -0.1808,15.94117 1.6579,7.98606 7.3666,13.87576 15.02607,15.50236 2.83964,0.6031 8.49857,0.1646 11.50255,-0.8912 z"
     id="path1421"
     transform="translate(0,-141.54)" />
  <path
     style="fill:#ffffff;stroke-width:0.45288"
     d="m 309.99651,1020.578 c -3.29744,-0.4566 -6.17909,-1.2704 -8.26251,-2.3333 l -1.70085,-0.8677 v -4.7769 -4.7768 l 1.32978,0.9469 c 2.73118,1.9447 7.05391,3.6057 10.4451,4.0133 9.16879,1.1021 14.49217,-1.8511 14.49217,-8.0397 0,-2.8406 -0.77345,-4.4405 -3.11209,-6.43711 -1.76364,-1.50574 -2.44433,-1.87951 -11.13369,-6.11352 -5.21774,-2.54241 -9.12379,-5.86342 -10.71255,-9.10804 -0.88493,-1.80724 -1.05184,-2.86247 -1.05583,-6.67537 -0.004,-4.08365 0.11975,-4.76721 1.26173,-6.95432 2.34275,-4.48681 6.86568,-7.91534 12.31406,-9.33446 5.04236,-1.31337 14.05459,-0.63081 17.89539,1.35535 l 1.33618,0.69097 v 4.29836 4.29836 l -2.15118,-1.08932 c -5.21594,-2.64127 -12.86178,-3.42406 -16.64723,-1.70437 -3.89463,1.76929 -5.81705,5.61397 -4.76349,9.52658 0.92373,3.43048 2.71331,4.85685 11.2286,8.94967 6.62414,3.18386 8.22556,4.15809 10.47312,6.37136 3.54355,3.4895 4.74757,6.58672 4.47316,11.50676 -0.52304,9.3778 -8.08839,15.4908 -20.2753,16.3828 -1.61905,0.1185 -4.0646,0.06 -5.43457,-0.1295 z"
     id="path1460"
     transform="translate(0,-141.54)" />
  <path
     style="fill:#ffffff;stroke-width:0.45288"
     d="m 307.66947,1019.9444 c -1.40441,-0.3252 -3.69712,-1.0554 -5.0949,-1.6227 l -2.54142,-1.0315 v -4.4676 -4.4676 l 2.8305,1.527 c 4.602,2.4828 7.26757,3.1717 12.35308,3.1925 4.00419,0.016 4.80709,-0.1184 6.7932,-1.1405 3.20298,-1.6483 4.29027,-3.4526 4.29027,-7.1195 0,-5.06389 -1.24163,-6.33179 -11.09556,-11.33043 -7.21028,-3.65757 -11.13284,-6.58801 -13.11933,-9.80108 -1.3123,-2.12259 -1.37284,-2.44178 -1.37284,-7.23771 0,-4.61942 0.0957,-5.18001 1.20729,-7.07074 1.74548,-2.96898 5.38016,-6.16861 8.88137,-7.81834 2.74627,-1.294 3.5488,-1.45149 8.18373,-1.6059 5.23501,-0.17441 9.24086,0.34442 12.39105,1.60488 l 1.71749,0.6872 v 4.0752 c 0,3.0912 -0.13669,4.01501 -0.5661,3.82591 -8.7157,-3.83819 -15.52367,-4.32533 -19.9072,-1.42444 -4.72512,3.12693 -4.63959,10.40456 0.16084,13.6864 1.08395,0.74104 5.08808,2.92301 8.89807,4.84881 5.21436,2.63565 7.51471,4.07945 9.30299,5.83897 3.48295,3.4269 4.14937,5.07519 4.14937,10.26287 0,3.7845 -0.15104,4.6099 -1.25469,6.8573 -2.10034,4.2769 -6.24595,7.4243 -12.10528,9.1904 -3.34011,1.0068 -10.84548,1.2945 -14.10193,0.5406 z"
     id="path1499"
     transform="translate(0,-141.54)" />
  <path
     style="fill:#ffffff;stroke-width:0.05661"
     d="m 114.1054,1010.3616 c 0.004,-2.9571 0.027,-4.9784 0.0523,-4.6935 0.0457,0.5158 0.0743,0.6057 0.16335,0.5148 0.2673,-0.2727 0.51152,-8.00087 0.51152,-16.18673 0,-8.18585 -0.24422,-15.91402 -0.51152,-16.18669 -0.0891,-0.0909 -0.11761,-10e-4 -0.16335,0.51477 -0.0251,0.28357 -0.0478,-1.82404 -0.0523,-4.86337 l -0.008,-5.3638 h 4.13253 4.13254 v 25.72926 25.72926 h -4.13254 -4.13253 z m 5.91521,4.857 c 1.38328,-0.4851 1.87163,-2.3348 2.11563,-8.013 0.22638,-5.2683 0.22657,-29.12807 2.8e-4,-34.41888 -0.24573,-5.74503 -0.74111,-7.56896 -2.18421,-8.04194 -0.48926,-0.16036 -2.10609,-0.16036 -2.59536,0 -1.45048,0.4754 -1.93395,2.26123 -2.18483,8.07025 -0.22565,5.2248 -0.22565,29.13747 0,34.36227 0.24786,5.7391 0.73333,7.5837 2.11409,8.0328 0.48941,0.1591 0.5827,0.1681 1.53824,0.1481 0.69165,-0.015 0.91351,-0.04 1.19616,-0.1396 z"
     id="path1538"
     transform="translate(0,-141.54)" />
  <path
     style="fill:#ffffff;stroke-width:0.320235"
     d="m 409.74027,1161.4912 v -116.7256 h 14.41056 14.41056 v 102.9555 102.9554 h 47.0745 47.0745 v 13.7701 13.7701 h -61.48506 -61.48506 z"
     id="path1577"
     transform="translate(0,-141.54)" />
  <path
     style="fill:#ffffff;stroke-width:0.320235"
     d="m 367.78953,1019.9468 c -13.73191,-2.7765 -22.0962,-13.9892 -22.0962,-29.62106 0,-12.15577 4.96279,-22.20007 13.46432,-27.25073 7.76964,-4.61586 19.93736,-5.41598 28.52286,-1.8756 8.10422,3.34191 13.4395,10.64565 15.1943,20.80023 0.7981,4.61847 0.51206,13.18786 -0.57734,17.29635 -2.96215,11.17111 -10.89685,18.78681 -21.50049,20.63591 -3.42721,0.5976 -10.08746,0.6052 -13.00745,0.015 z m 11.78212,-7.711 c 6.12255,-1.2559 10.52279,-4.9909 12.69089,-10.7723 2.37873,-6.34296 2.34264,-16.88961 -0.0805,-23.5292 -2.059,-5.6418 -5.02834,-8.59176 -10.46229,-10.39402 -2.9581,-0.9811 -9.49319,-1.06285 -12.47241,-0.15602 -6.65344,2.02522 -11.08521,6.75095 -13.06485,13.93147 -0.56722,2.05742 -0.67792,3.38472 -0.69806,8.36954 -0.0267,6.6075 0.40911,8.91736 2.45984,13.03793 3.7554,7.5458 12.4891,11.3872 21.62739,9.5126 z"
     id="path1616"
     transform="translate(0,-141.54)" />
  <path
     style="fill:#ffffff;stroke-width:0.320235"
     d="m 419.66754,993.6882 v -25.45865 h -4.96363 -4.96364 v -3.67436 -3.67436 l 4.88358,-0.0884 4.88358,-0.0884 0.18579,-7.36539 c 0.1466,-5.81156 0.3062,-7.73697 0.75654,-9.12669 1.88722,-5.82395 5.86041,-10.12778 11.22659,-12.16085 2.37985,-0.90165 8.5785,-1.26202 11.44839,-0.66558 l 1.84134,0.38268 v 4.14465 4.14464 l -1.20088,-0.51886 c -1.55273,-0.67089 -6.54491,-0.95824 -8.31263,-0.47849 -2.17386,0.58998 -3.96177,2.16026 -5.13658,4.51134 -1.23478,2.47107 -1.66769,5.71706 -1.67632,12.56921 l -0.006,4.40323 h 7.04516 7.04516 v 3.84281 3.84282 h -7.04516 -7.04516 v 25.45865 25.4587 h -4.48329 -4.48329 z"
     id="path1655"
     transform="translate(0,-141.54)" />
  <path
     style="fill:#ffffff;stroke-width:0.320235"
     d="m 468.74817,1019.952 c -3.69953,-1.0358 -6.81739,-3.446 -8.35383,-6.4576 -1.76971,-3.469 -1.77174,-3.4959 -1.89516,-25.17013 l -0.11443,-20.09472 h -5.10816 -5.10816 v -3.84282 -3.84281 h 5.11774 5.11775 l 0.0861,-7.25559 0.0861,-7.25558 4.32317,-1.38365 c 2.37774,-0.761 4.35684,-1.38684 4.39799,-1.39075 0.0412,-0.004 0.11321,3.84772 0.16012,8.55917 l 0.0853,8.56628 7.44546,0.086 7.44545,0.086 v 3.83691 3.83692 h -7.55045 -7.55044 l 0.13042,18.49355 c 0.14537,20.61222 0.17003,20.85722 2.35616,23.41122 1.92745,2.2518 5.67808,3.1092 9.41402,2.1521 1.14056,-0.2922 2.21194,-0.6694 2.38083,-0.8383 0.69005,-0.6901 0.81946,-0.1353 0.81946,3.5127 v 3.8198 l -1.84135,0.7144 c -2.39258,0.9282 -9.22026,1.1917 -11.84402,0.457 z"
     id="path1694"
     transform="translate(0,-141.54)" />
  <path
     style="fill:#ffffff;stroke-width:0.0100073"
     d="m 490.09827,962.73302 c 0.0257,-0.32767 0.10156,-0.9295 0.16688,-1.32347 0.23373,-1.40963 0.61774,-2.68963 1.18741,-3.9579 0.10728,-0.23884 0.40091,-0.82304 0.53205,-1.05853 0.61159,-1.09828 1.30828,-2.05959 2.1919,-3.02446 0.19292,-0.21066 0.81196,-0.83273 1.02153,-1.02653 1.2478,-1.15394 2.57735,-2.06143 4.00052,-2.7306 l 0.19288,-0.0907 h 5.3737 5.37371 v 0.30139 0.30138 l -0.0225,-0.006 c -0.0579,-0.0158 -0.45754,-0.09 -0.678,-0.12585 -0.56845,-0.0925 -1.04486,-0.14346 -1.78631,-0.19118 -0.26438,-0.017 -1.39922,-0.0237 -1.73892,-0.0103 -1.63271,0.0646 -3.01381,0.2916 -4.36228,0.71708 -1.95753,0.61767 -3.75733,1.6971 -5.27158,3.16167 -0.23093,0.22335 -0.26812,0.26045 -0.44335,0.44234 -1.99324,2.06889 -3.21294,4.49332 -3.68429,7.32335 -0.0668,0.4013 -0.12923,0.89001 -0.15753,1.23389 l -0.0125,0.15213 h -0.94508 -0.94508 z"
     id="path1850"
     transform="translate(0,-141.54)" />
  <path
     style="fill:#ffffff;stroke-width:0.0100073"
     d="m 499.65116,958.17718 v -4.6434 l 3.08476,1.2e-4 c 2.92452,1.2e-4 3.48033,0.004 3.91037,0.0299 1.29925,0.077 2.36438,0.28354 3.33994,0.64761 l 0.15262,0.057 v 1.56564 1.56565 l -0.052,-0.069 c -0.0669,-0.0888 -0.25197,-0.27914 -0.34777,-0.35771 -0.18699,-0.15335 -0.4942,-0.33186 -0.78703,-0.45731 -0.57949,-0.24827 -1.38832,-0.4279 -2.22567,-0.4943 -0.46344,-0.0367 -0.54005,-0.0383 -2.12906,-0.0428 l -1.59367,-0.005 v 3.42335 3.42335 h -1.67623 -1.67623 z"
     id="path1889"
     transform="translate(0,-141.54)" />
  <path
     style="fill:#ffffff;stroke-width:0.05661"
     d="m 499.66841,968.76741 v -5.91575 h 1.67 1.66999 v 0.17387 0.17386 l 2.25025,-0.0226 c 2.09744,-0.0211 2.28284,-0.0311 2.73006,-0.14775 0.69166,-0.18036 1.24347,-0.46481 1.66296,-0.85722 0.67999,-0.6361 0.9492,-1.39242 0.94958,-2.66778 2.8e-4,-0.92079 -0.0722,-1.37221 -0.2956,-1.8422 l -0.16625,-0.34971 0.0151,-1.5042 0.0151,-1.5042 0.35576,0.16828 c 1.18307,0.55959 2.05554,1.43254 2.47861,2.47995 0.61101,1.51271 0.52462,3.64826 -0.2042,5.0478 -0.27801,0.53384 -0.9457,1.31288 -1.45216,1.69432 -0.67483,0.50825 -1.70466,0.97668 -2.69277,1.22486 -0.54711,0.13741 -0.54671,0.13682 -0.19204,0.28097 1.02976,0.41852 1.93159,1.37892 2.89815,3.08636 0.14981,0.26465 0.87541,1.70396 1.61242,3.19846 0.73702,1.49451 1.39552,2.82591 1.46333,2.95869 l 0.12331,0.2414 -1.76248,-0.015 -1.76248,-0.015 -1.19852,-2.68897 c -0.65918,-1.47894 -1.32055,-2.91802 -1.46971,-3.19796 -0.61429,-1.15288 -1.32389,-2.03055 -2.00756,-2.48303 -0.65163,-0.43127 -0.76063,-0.45373 -2.31769,-0.47744 l -1.3728,-0.0209 v 4.44831 4.44831 h -1.50016 -1.50017 z"
     id="path1928"
     transform="translate(0,-141.54)" />
  <path
     style="fill:#ffffff;stroke-width:0.05661"
     d="m 505.18789,980.68233 c -3.6109,-0.2176 -6.87506,-1.45512 -9.36896,-3.55199 -3.57226,-3.00357 -5.32145,-6.39438 -5.71587,-11.08021 -0.0652,-0.77448 -0.0758,-2.12566 -0.0217,-2.76535 l 0.0366,-0.43312 0.91161,-1e-5 0.9116,-10e-6 -0.0191,1.14636 c -0.0324,1.9423 0.18931,3.45794 0.75868,5.18701 1.32913,4.03637 4.61268,7.50553 8.48786,8.96764 2.82276,1.06504 6.53116,1.22097 9.64311,0.40548 4.89728,-1.28333 8.93963,-5.43729 10.17088,-10.45169 1.1432,-4.65578 0.16545,-9.34776 -2.6853,-12.88605 -2.07451,-2.57484 -4.77526,-4.33293 -7.71727,-5.02368 l -0.43873,-0.103 v -0.30101 -0.301 l -5.30719,-0.001 c -6.0446,-10e-4 -5.60085,0.0499 -4.09629,-0.47354 3.56411,-1.23992 8.09663,-1.26148 11.62601,-0.0553 3.99834,1.36645 7.44971,4.37633 9.26727,8.08183 1.12299,2.28947 1.60178,4.46507 1.60212,7.28007 1.7e-4,1.42819 -0.0767,2.2473 -0.32724,3.48902 -0.60946,3.02002 -2.13735,5.7645 -4.55181,8.17618 -2.73797,2.73482 -5.95149,4.26285 -9.8105,4.66489 -0.85802,0.0894 -2.16361,0.10056 -3.35575,0.0287 z"
     id="path1967"
     transform="translate(0,-141.54)" />
  <path
     style="fill:#ffffff;stroke-width:0.640469"
     d="m 640.46935,1283.1606 c -10.08129,-1.1432 -26.5142,-5.1442 -38.74839,-9.4342 l -3.52258,-1.2352 -0.17231,-13.7626 c -0.0948,-7.5695 0.0494,-14.8298 0.32038,-16.134 l 0.49269,-2.3714 12.32241,6.0322 c 19.74876,9.6677 32.9628,13.104 47.56118,12.3683 9.06701,-0.4569 14.15297,-1.6527 20.90202,-4.9143 11.76116,-5.6839 18.76776,-16.9101 18.79762,-30.1183 0.0274,-12.1144 -6.38616,-22.6344 -21.12603,-34.6528 -5.46195,-4.4535 -10.92236,-8.1148 -22.73666,-15.2454 -43.28315,-26.1238 -59.65022,-47.4805 -56.65444,-73.926 0.72155,-6.3695 3.84552,-16.5162 7.05898,-22.9275 12.0002,-23.9423 37.15199,-35.611 73.90282,-34.2859 13.12207,0.4732 28.81152,3.266 36.57846,6.5113 l 2.20041,0.9193 v 14.722 14.7219 l -5.30476,-2.4859 c -28.30295,-13.2632 -59.01669,-13.1491 -74.54788,0.2769 -8.38102,7.245 -13.46603,22.722 -10.837,32.9841 1.60939,6.2821 4.44575,10.6354 11.53369,17.7021 7.1103,7.089 15.26656,13.1234 30.42632,22.5107 31.52483,19.521 44.47075,30.7536 51.89785,45.0294 4.55814,8.7613 5.47916,13.2881 5.47111,26.8905 -0.006,10.4313 -0.18297,12.4616 -1.47793,16.9724 -6.22403,21.6808 -26.9411,37.8721 -54.87636,42.8882 -6.98412,1.2541 -22.44392,1.7601 -29.4616,0.9642 z"
     id="path2006"
     transform="translate(0,-141.54)" />
  <path
     style="fill:#ffffff;stroke-width:0.640469"
     d="m 812.75561,1282.5106 c -14.25783,-2.2037 -33.16826,-11.3258 -44.34311,-21.3904 -7.51565,-6.769 -15.07086,-19.0609 -18.34177,-29.841 -3.10217,-10.224 -3.84223,-16.8081 -3.88478,-34.5622 -0.0429,-17.8975 0.37442,-21.166 4.25035,-33.2891 8.33996,-26.0857 29.09982,-46.4042 54.09747,-52.9475 8.51651,-2.2292 24.01262,-2.8199 32.42493,-1.2359 12.07853,2.2742 22.37582,7.2644 30.37423,14.7197 11.01118,10.2635 17.32882,22.0546 20.78094,38.7852 0.98945,4.7953 1.33828,9.7874 1.6239,23.2397 l 0.36376,17.1326 h -58.7758 -58.77581 l 0.40358,3.4339 c 1.5448,13.1438 8.0863,28.2256 16.65523,38.3996 3.87046,4.5954 12.58145,10.0853 20.08393,12.6574 6.16228,2.1127 6.44432,2.1476 17.15328,2.1247 10.0714,-0.022 11.44036,-0.1703 18.25337,-1.9826 10.1505,-2.7 18.86576,-6.0361 27.43306,-10.5008 3.99205,-2.0805 7.38463,-3.7826 7.53906,-3.7826 0.15443,0 0.20263,5.6884 0.10712,12.6409 l -0.17366,12.641 -7.68563,3.3275 c -8.77112,3.7974 -19.62014,7.2166 -29.24687,9.2174 -7.49148,1.5571 -23.8535,2.2114 -30.31678,1.2125 z m 50.27104,-103.5666 c -0.0103,-3.1315 -3.04216,-15.2527 -5.1015,-20.3957 -5.56498,-13.8979 -13.56596,-21.2648 -26.75979,-24.6392 -14.32545,-3.6638 -29.3848,0.4466 -39.93991,10.9017 -4.19164,4.1519 -5.38229,5.868 -8.46245,12.1971 -3.37254,6.9299 -6.35551,15.6736 -7.24514,21.2371 l -0.39342,2.4603 h 43.95401 43.95401 l -0.006,-1.7613 z"
     id="path2045"
     transform="translate(0,-141.54)" />
  <path
     style="fill:#ffffff;stroke-width:0.640469"
     d="m 920.03423,1195.4361 v -82.6206 h 14.09032 14.09033 v 13.7701 c 0,7.5735 0.21616,13.76 0.48035,13.7477 0.2642,-0.012 2.57092,-3.2886 5.12607,-7.2808 11.31633,-17.6806 22.22639,-23.4393 44.40653,-23.4393 h 8.91027 v 14.0702 c 0,10.9791 -0.1759,14.0084 -0.8006,13.789 -18.46222,-6.4837 -30.61728,-4.0073 -42.24243,8.6063 -6.69323,7.2624 -11.67008,16.9781 -13.63639,26.6207 -1.47628,7.2396 -2.19504,30.1896 -2.22147,70.932 l -0.0223,34.4252 h -14.09033 -14.09032 z"
     id="path2084"
     transform="translate(0,-141.54)" />
  <path
     style="fill:#ffffff;stroke-width:0.640469"
     d="m 1078.687,1277.256 c -4.9504,-12.3584 -23.7312,-61.2665 -32.2799,-84.0616 -10.1716,-27.1224 -29.0215,-79.1328 -29.0215,-80.0755 0,-0.1669 6.5568,-0.301 14.5706,-0.298 l 14.5707,0.01 11.4655,34.0997 c 6.3061,18.7548 12.9528,38.1345 14.7705,43.0662 1.8177,4.9316 7.1779,19.5541 11.9116,32.4944 4.7337,12.9404 8.7508,23.5295 8.9269,23.5315 0.4472,0.01 23.4972,-60.313 31.9341,-83.5661 3.8342,-10.5678 9.5223,-26.0591 12.6401,-34.4252 l 5.6687,-15.2112 h 13.9472 c 7.671,0 13.9472,0.1118 13.9472,0.2485 0,0.2223 -19.2626,48.7343 -53.6119,135.0195 l -11.9321,29.9731 h -13.5935 c -10.2768,0 -13.6718,-0.1953 -13.9142,-0.8006 z"
     id="path2123"
     transform="translate(0,-141.54)" />
  <path
     style="fill:#ffffff;stroke-width:0.640469"
     d="m 1241.2296,1281.8722 c -11.286,-1.7504 -23.8497,-7.0075 -35.3509,-14.792 -7.8563,-5.3175 -12.2354,-9.491 -16.9186,-16.1246 -9.4049,-13.3216 -13.0435,-25.7556 -13.9829,-47.7834 -0.9548,-22.389 1.1668,-35.26 8.3369,-50.5765 15.8988,-33.9624 51.98,-51.4719 87.6973,-42.5578 14.2931,3.5672 26.5283,12.3438 35.1701,25.2287 4.4574,6.6458 7.2774,13.2423 9.84,23.0176 1.8888,7.2052 1.9387,7.7889 2.2284,26.1038 l 0.2964,18.7337 h -58.5961 -58.596 l 0.8943,4.9636 c 3.0515,16.9354 11.219,32.698 21.0932,40.7084 4.4094,3.5771 12.382,7.661 17.8879,9.163 6.3778,1.7397 19.805,1.8838 27.8604,0.2988 10.1189,-1.991 20.4253,-5.5782 30.5824,-10.6443 l 9.1267,-4.5522 v 12.6032 12.6032 l -6.5648,2.8909 c -8.2399,3.6287 -18.4184,6.9188 -28.3408,9.161 -6.2935,1.4222 -9.5998,1.7743 -18.2533,1.9438 -5.8123,0.1139 -12.297,-0.061 -14.4106,-0.3889 z m 50.5542,-104.5294 c -1.3804,-9.934 -5.3749,-21.8044 -9.5663,-28.4277 -3.1153,-4.9228 -4.9786,-6.8772 -9.5112,-9.9766 -8.6691,-5.9278 -21.0751,-8.279 -31.7969,-6.0262 -6.4796,1.3614 -15.5175,5.9067 -19.6791,9.8968 -6.6425,6.3687 -12.5087,17.5579 -15.5437,29.6483 -0.7408,2.9512 -1.4963,5.8701 -1.6788,6.4866 -0.3139,1.0598 2.0754,1.1208 43.9111,1.1208 h 44.2432 z"
     id="path2162"
     transform="translate(0,-141.54)" />
  <path
     style="fill:#ffffff;stroke-width:0.90576"
     d="m 1349.1302,1195.1509 v -82.4242 h 14.0157 14.0157 l 0.25,13.8129 0.25,13.8128 4.7627,-7.3482 c 11.4452,-17.6583 23.3764,-23.8278 46.1864,-23.8826 l 7.4725,-0.018 v 14.0393 c 0,7.7216 -0.1019,14.0361 -0.2265,14.0323 -0.1245,0 -2.8757,-0.8159 -6.1138,-1.8046 -3.4969,-1.0677 -8.5045,-1.8005 -12.3325,-1.8046 -5.5727,-0.01 -7.3099,0.4257 -12.8334,3.1891 -8.1805,4.0925 -15.2798,11.6286 -20.2307,21.4753 -6.3864,12.702 -6.4388,13.2294 -6.891,69.3013 l -0.4036,50.0433 h -13.9607 -13.9608 z"
     id="path2201"
     transform="translate(0,-141.54)" />
  <path
     style="fill:#ffffff;stroke-width:0.028305"
     d="m 1454.6088,1123.7232 v -10.5578 h 3.4208 c 2.0602,0 3.566,0.011 3.7858,0.029 3.6009,0.284 5.7644,1.6469 6.3631,4.0085 0.1413,0.5575 0.1715,0.8444 0.1712,1.6237 -3e-4,0.5485 -0.012,0.8 -0.051,1.0473 -0.215,1.3944 -0.6978,2.2938 -1.6642,3.1002 -0.8466,0.7065 -1.9634,1.2721 -3.1242,1.5821 -0.1557,0.042 -0.3016,0.082 -0.3242,0.09 -0.023,0.01 0.054,0.056 0.1767,0.1089 0.7056,0.3067 1.4492,1.0261 2.0131,1.9476 0.2717,0.444 0.5288,0.9474 0.7625,1.4931 0.1535,0.3585 2.6869,5.5147 2.9628,6.0303 0.03,0.055 0.012,0.056 -1.7607,0.048 l -1.7905,-0.01 -0.6456,-1.4577 c -0.355,-0.8017 -0.8503,-1.9226 -1.1006,-2.4908 -0.2503,-0.5682 -0.5668,-1.2573 -0.7033,-1.5314 -0.7882,-1.5821 -1.7022,-2.6851 -2.5984,-3.1357 -0.4631,-0.2329 -0.4987,-0.2379 -1.7683,-0.251 l -1.1251,-0.012 v 4.4461 4.4462 h -1.5002 -1.5002 z m 7.0197,-0.9627 c 1.2135,-0.091 2.0699,-0.3843 2.6958,-0.9247 0.732,-0.6319 1.0903,-1.6756 1.0283,-2.9952 -0.051,-1.088 -0.2047,-1.5805 -0.6323,-2.0281 -0.4593,-0.4808 -1.0858,-0.7904 -2.0162,-0.9965 -0.8033,-0.1779 -1.3942,-0.2157 -3.3754,-0.216 l -1.578,-3e-4 v 3.5947 3.5947 h 1.7478 c 0.9613,0 1.9198,-0.013 2.13,-0.029 z"
     id="path2240"
     transform="translate(0,-141.54)" />
  <path
     style="fill:#ffffff;stroke-width:0.028305"
     d="m 1460.2132,1140.1372 c -3.8317,-0.2142 -7.133,-1.4766 -9.9058,-3.7883 -3.1046,-2.5881 -4.8938,-5.9224 -5.393,-10.0499 -0.097,-0.8005 -0.1133,-1.1421 -0.1133,-2.3493 0,-1.2583 0.018,-1.5939 0.1296,-2.4626 0.3606,-2.7989 1.368,-5.3016 3.0137,-7.4867 0.5559,-0.7381 1.1782,-1.4242 2.0083,-2.2142 3.0445,-2.8974 6.8642,-4.341 11.4776,-4.3377 5.0829,0 9.2676,1.8287 12.5775,5.4853 2.291,2.531 3.6731,5.6834 4.0637,9.2688 0.1554,1.4258 0.148,2.4378 -0.028,3.8241 -0.3413,2.6917 -1.328,5.1366 -2.9655,7.3485 -2.761,3.7295 -6.5068,5.9908 -10.9447,6.6073 -1.2072,0.1677 -2.6611,0.225 -3.9203,0.1547 z m 2.2786,-1.7259 c 2.8526,-0.1852 5.4434,-1.1144 7.5574,-2.7103 0.9396,-0.7094 2.0507,-1.7717 2.8471,-2.722 1.3443,-1.6043 2.2753,-3.5509 2.7119,-5.6704 0.2573,-1.2489 0.3257,-1.9804 0.3273,-3.5005 0,-1.1626 -0.014,-1.4488 -0.1136,-2.1936 -0.3248,-2.4204 -1.2391,-4.6415 -2.7266,-6.6234 -2.032,-2.7073 -4.6946,-4.5332 -7.782,-5.3365 -2.673,-0.6954 -6.0217,-0.6602 -8.7231,0.091 -2.6899,0.7486 -5.0476,2.3073 -6.9488,4.594 -1.7283,2.0787 -2.7653,4.5398 -3.083,7.3168 -0.1393,1.2168 -0.145,2.6973 -0.015,3.8778 0.4428,4.0211 2.5389,7.6916 5.7869,10.1331 2.7845,2.0931 6.1564,3.0035 10.1615,2.7435 z"
     id="path2279"
     transform="translate(0,-141.54)" />
  <path
     style="fill:#ffffff;stroke-width:0.028305"
     d="m 933.45691,948.16136 v -9.72277 h 1.31618 1.31618 v 9.72277 9.72277 h -1.31618 -1.31618 z"
     id="path2318"
     transform="translate(0,-141.54)" />
  <path
     style="fill:#ffffff;stroke-width:0.028305"
     d="m 946.67535,948.17551 v -9.73692 h 1.36949 1.36949 l 0.017,0.0778 c 0.009,0.0428 0.0256,0.83889 0.0362,1.76906 l 0.0191,1.69123 h -0.0753 -0.0753 v 7.96786 7.96786 h -1.33034 -1.33033 z"
     id="path2357"
     transform="translate(0,-141.54)" />
  <path
     style="fill:#ffffff;stroke-width:0.0800587"
     d="m 933.44406,937.52705 v -0.88065 h -3.48256 -3.48255 v -1.28094 -1.28093 h 8.28607 8.28608 v 1.28093 1.28094 h -3.48255 -3.48256 v 0.88065 0.88064 h -1.32097 -1.32096 z"
     id="path2396"
     transform="translate(0,-141.54)" />
  <path
     style="fill:#ffffff;stroke-width:0.0800587"
     d="m 958.15448,957.64509 c -0.0634,-0.1229 -0.56549,-1.2322 -1.11575,-2.4651 -1.46803,-3.28924 -4.45127,-9.95095 -5.98726,-13.3698 -0.86375,-1.92255 -1.59409,-3.82662 -1.59683,-4.16305 -7.1e-4,-0.0881 -0.0322,-0.20894 -0.0701,-0.26861 -0.04,-0.0631 -0.0517,0.12933 -0.028,0.46034 l 0.0407,0.56882 h -1.33173 -1.33172 v -2.16158 -2.16158 h 1.86149 1.8615 l 1.05382,2.38174 c 0.5796,1.30996 2.2493,5.08373 3.71044,8.38615 2.9127,6.58321 3.47012,7.87782 3.60069,8.36272 0.12303,0.45689 0.36149,0.44875 0.48628,-0.0166 0.22437,-0.83673 1.15207,-2.99137 4.43802,-10.30755 0.42519,-0.94669 1.03879,-2.3157 1.36355,-3.04223 0.32476,-0.72653 1.0357,-2.31169 1.57987,-3.52258 l 0.98939,-2.20161 1.65636,-0.0216 1.65636,-0.0216 v 11.89033 11.89034 h -1.36099 -1.361 l 4e-4,-8.74641 c 2.4e-4,-4.96812 0.0361,-9.39938 0.0829,-10.25797 0.0454,-0.83137 0.0661,-1.52797 0.0461,-1.54802 -0.0201,-0.02 -0.20446,0.48002 -0.4098,1.11127 -0.26345,0.80992 -1.56782,3.8339 -4.43177,10.27441 l -4.05844,9.12669 -0.6146,0.0233 c -0.6016,0.0228 -0.61704,0.0186 -0.72989,-0.20015 z"
     id="path2435"
     transform="translate(0,-141.54)" />
</svg>
